<svg width="41" height="41" viewBox="0 0 41 41" fill="none" xmlns="http://www.w3.org/2000/svg">
<path d="M11.25 9.40002H29.75M11.25 14.95H29.75M14.95 29.75H26.05" stroke="white" stroke-linecap="round" stroke-linejoin="round"/>
<path d="M3.85 20.5H3.11C2.81561 20.5 2.53328 20.6169 2.32511 20.8251C2.11695 21.0333 2 21.3156 2 21.61V37.89C2 38.0358 2.02871 38.1801 2.08449 38.3148C2.14028 38.4495 2.22204 38.5718 2.32511 38.6749C2.42818 38.778 2.55055 38.8597 2.68522 38.9155C2.81989 38.9713 2.96423 39 3.11 39H37.89C38.0358 39 38.1801 38.9713 38.3148 38.9155C38.4495 38.8597 38.5718 38.778 38.6749 38.6749C38.778 38.5718 38.8597 38.4495 38.9155 38.3148C38.9713 38.1801 39 38.0358 39 37.89V21.61C39 21.3156 38.8831 21.0333 38.6749 20.8251C38.4667 20.6169 38.1844 20.5 37.89 20.5H37.15M3.85 20.5V3.11C3.85 2.81561 3.96695 2.53328 4.17511 2.32511C4.38328 2.11695 4.66561 2 4.96 2H36.04C36.3344 2 36.6167 2.11695 36.8249 2.32511C37.0331 2.53328 37.15 2.81561 37.15 3.11V20.5M3.85 20.5H37.15" stroke="white" stroke-width="3"/>
</svg>
