<svg width="36" height="44" viewBox="0 0 36 44" fill="none" xmlns="http://www.w3.org/2000/svg">
<path d="M32.2685 0C33.414 0 34.3223 0.33704 34.9934 1.012C35.6162 1.6368 35.9499 2.47104 35.9942 3.51208L36 3.75584V40.2442C36 41.3855 35.6645 42.2972 34.9934 42.9783C34.3705 43.611 33.5432 43.9498 32.5105 43.9947L32.2694 44H3.75273C2.59182 44 1.67581 43.6594 1.00471 42.9792C0.382794 42.3456 0.0482106 41.5149 0.00385659 40.4853L0 40.2442V3.75584C0 2.6004 0.335547 1.6852 1.00664 1.01112C1.62953 0.38544 2.46261 0.05016 3.50879 0.00528004L3.7537 0H32.2685ZM31.07 3.32288H4.95222C4.5 3.32288 4.16831 3.41968 3.95715 3.61152C3.77298 3.78048 3.66788 4.03304 3.6457 4.37008L3.64088 4.51968V39.4803C3.64088 39.893 3.74695 40.1958 3.95715 40.3885C4.14228 40.5566 4.41901 40.6525 4.7883 40.6727L4.95222 40.6771H10.1301V34.5893C10.1301 33.7691 10.3171 33.1487 10.6912 32.7281L10.7973 32.6181C11.2052 32.2335 11.8126 32.025 12.6197 31.9933L12.8443 31.9889H23.1557C24.091 31.9889 24.7756 32.1983 25.2133 32.6181C25.6144 33.0026 25.8304 33.587 25.8642 34.3702L25.869 34.5893V40.6771H31.07C31.5077 40.6771 31.8317 40.5803 32.0429 40.3885C32.227 40.2195 32.3312 39.967 32.3543 39.6299L32.3591 39.4803V4.51968C32.3591 4.10696 32.2531 3.80424 32.0429 3.61152C31.8307 3.4188 31.5077 3.32288 31.07 3.32288ZM22.1837 34.6922H13.8163C13.3747 34.6922 13.1346 34.877 13.0979 35.2466L13.0931 35.3522L13.0921 40.6771H22.9069V35.3531C22.9069 34.9483 22.7044 34.731 22.2994 34.6966L22.1837 34.6922ZM14.902 23.0938C15.4757 23.0938 15.7833 23.3367 15.8247 23.8242L15.8295 23.9404V27.8406C15.8295 28.3642 15.5625 28.6449 15.0292 28.6827L14.902 28.6862H10.4926C9.94686 28.6862 9.65374 28.4434 9.61517 27.9567L9.61035 27.8406V23.9404C9.61035 23.4159 9.86394 23.1352 10.3711 23.0982L10.4926 23.0938H14.902ZM25.4852 23.0938C26.0589 23.0938 26.3665 23.3367 26.407 23.8242L26.4118 23.9404V27.8406C26.4118 28.3642 26.1457 28.6449 25.6125 28.6827L25.4852 28.6862H21.098C20.5388 28.6862 20.2379 28.4434 20.1984 27.9567L20.1936 27.8406V23.9404C20.1936 23.4159 20.4539 23.1352 20.9736 23.0982L21.098 23.0938H25.4852ZM14.902 14.9213C15.4757 14.9213 15.7833 15.1642 15.8247 15.6508L15.8295 15.767V19.668C15.8295 20.1916 15.5625 20.4723 15.0292 20.5102L14.902 20.5137H10.4926C9.94686 20.5137 9.65374 20.2708 9.61517 19.7842L9.61035 19.668V15.767C9.61035 15.2434 9.86394 14.9626 10.3711 14.9257L10.4926 14.9213H14.902ZM25.4852 14.9213C26.0589 14.9213 26.3665 15.1642 26.407 15.6508L26.4118 15.767V19.668C26.4118 20.1916 26.1457 20.4723 25.6125 20.5102L25.4852 20.5137H21.098C20.5388 20.5137 20.2379 20.2708 20.1984 19.7842L20.1936 19.668V15.767C20.1936 15.2434 20.4539 14.9626 20.9736 14.9257L21.098 14.9213H25.4852ZM14.902 6.74872C15.4757 6.74872 15.7833 6.9916 15.8247 7.47824L15.8295 7.5944V11.4954C15.8295 12.019 15.5625 12.2998 15.0292 12.3376L14.902 12.3411H10.4926C9.94686 12.3411 9.65374 12.0982 9.61517 11.6116L9.61035 11.4954V7.5944C9.61035 7.0708 9.86394 6.79008 10.3711 6.75312L10.4926 6.74872H14.902ZM25.4852 6.74872C26.0589 6.74872 26.3665 6.9916 26.407 7.47824L26.4118 7.5944V11.4954C26.4118 12.019 26.1457 12.2998 25.6125 12.3376L25.4852 12.3411H21.098C20.5388 12.3411 20.2379 12.0982 20.1984 11.6116L20.1936 11.4954V7.5944C20.1936 7.0708 20.4539 6.79008 20.9736 6.75312L21.098 6.74872H25.4852Z" fill="white"/>
</svg>
