<svg width="38" height="44" viewBox="0 0 38 44" fill="none" xmlns="http://www.w3.org/2000/svg">
<path d="M32.5714 38.5H29.8571V39.3164C29.8571 40.8346 29.4401 42.0449 28.606 42.9473C27.7719 43.8496 26.7612 44.1719 25.5737 43.9141L4.28348 39.6602C3.09598 39.431 2.08519 38.7005 1.25112 37.4688C0.417039 36.237 0 34.862 0 33.3438V5.5C0 3.98177 0.530134 2.68555 1.5904 1.61133C2.65067 0.537109 3.93006 0 5.42857 0H32.5714C34.0699 0 35.3493 0.537109 36.4096 1.61133C37.4699 2.68555 38 3.98177 38 5.5V33C38 34.5182 37.4699 35.8145 36.4096 36.8887C35.3493 37.9629 34.0699 38.5 32.5714 38.5ZM5.42857 17.918C5.42857 19.2357 5.85268 20.4388 6.70089 21.5273C6.81399 21.6992 7.11793 21.9714 7.61272 22.3438C8.10752 22.7161 8.54576 23.11 8.92746 23.5254C9.30915 23.9408 9.5 24.349 9.5 24.75V30.25C9.5 30.6797 9.94531 31.0736 10.8359 31.4316C11.7266 31.7897 13.0908 32.1979 14.9286 32.6562C16.0313 32.9427 16.9855 33.0501 17.7913 32.9785C18.5971 32.9069 19.2262 32.7422 19.6786 32.4844C20.131 32.2266 20.3571 31.9401 20.3571 31.625V26.125C20.3571 25.724 20.548 25.3444 20.9297 24.9863C21.3114 24.6283 21.7638 24.306 22.2868 24.0195C22.8099 23.7331 23.1138 23.5469 23.1987 23.4609C23.34 23.3464 23.545 23.2174 23.8136 23.0742C24.0822 22.931 24.2519 22.7806 24.3225 22.623C24.3932 22.4655 24.4286 22.1862 24.4286 21.7852C24.4286 20.4961 24.0186 19.3073 23.1987 18.2188C22.3787 17.1302 21.4033 16.4714 20.2723 16.2422C19.5655 16.099 18.901 16.1706 18.279 16.457C17.4308 14.9961 16.3069 14.1224 14.9074 13.8359C13.5078 13.5495 12.3981 13.9648 11.5781 15.082C10.9278 14.5664 10.2634 14.237 9.58482 14.0938C8.4256 13.8646 7.44308 14.1224 6.63728 14.8672C5.83147 15.612 5.42857 16.6289 5.42857 17.918ZM35.2857 7.47656C35.2857 6.15885 34.8263 5.04167 33.9074 4.125C32.9885 3.20833 31.8929 2.75 30.6205 2.75H10.8996L25.5737 5.67188C26.7612 5.92969 27.7719 6.67448 28.606 7.90625C29.4401 9.13802 29.8571 10.4987 29.8571 11.9883V35.75H30.6205C31.8929 35.75 32.9885 35.2845 33.9074 34.3535C34.8263 33.4225 35.2857 32.3125 35.2857 31.0234V7.47656Z" fill="white"/>
</svg>
